{
    "asset" : {
        "generator" : "Khronos glTF Blender I/O v1.8.19",
        "version" : "2.0"
    },
    "scene" : 0,
    "scenes" : [
        {
            "name" : "Scene",
            "nodes" : [
                0,
                1,
                2,
                3,
                4,
                5
            ]
        }
    ],
    "nodes" : [
        {
            "mesh" : 0,
            "name" : "Cube.002"
        },
        {
            "mesh" : 1,
            "name" : "Cube.003",
            "rotation" : [
                0,
                -0.010907735675573349,
                0,
                0.9999405145645142
            ],
            "translation" : [
                -0.5492652058601379,
                0.5334587097167969,
                3.4853591918945312
            ]
        },
        {
            "mesh" : 2,
            "name" : "Cube.004"
        },
        {
            "mesh" : 3,
            "name" : "Cube.005",
            "rotation" : [
                0,
                -0.010907735675573349,
                0,
                0.9999405145645142
            ],
            "translation" : [
                -0.5492652058601379,
                0.5334587097167969,
                3.4853591918945312
            ]
        },
        {
            "mesh" : 4,
            "name" : "Cube"
        },
        {
            "mesh" : 5,
            "name" : "Cube.001",
            "rotation" : [
                0,
                -0.010907735675573349,
                0,
                0.9999405145645142
            ],
            "translation" : [
                -0.754662275314331,
                0.5334586501121521,
                3.473149299621582
            ]
        }
    ],
    "animations" : [
        {
            "channels" : [
                {
                    "sampler" : 0,
                    "target" : {
                        "node" : 1,
                        "path" : "translation"
                    }
                },
                {
                    "sampler" : 1,
                    "target" : {
                        "node" : 3,
                        "path" : "translation"
                    }
                }
            ],
            "name" : "Cube.001Action.001",
            "samplers" : [
                {
                    "input" : 21,
                    "interpolation" : "LINEAR",
                    "output" : 22
                },
                {
                    "input" : 21,
                    "interpolation" : "LINEAR",
                    "output" : 23
                }
            ]
        },
        {
            "channels" : [
                {
                    "sampler" : 0,
                    "target" : {
                        "node" : 5,
                        "path" : "translation"
                    }
                }
            ],
            "name" : "Cube.001Action.001",
            "samplers" : [
                {
                    "input" : 21,
                    "interpolation" : "LINEAR",
                    "output" : 24
                }
            ]
        }
    ],
    "materials" : [
        {
            "doubleSided" : true,
            "name" : "Material.002",
            "pbrMetallicRoughness" : {
                "baseColorFactor" : [
                    0.8000000715255737,
                    0,
                    0.007100185379385948,
                    1
                ],
                "metallicFactor" : 0,
                "roughnessFactor" : 0.4000000059604645
            }
        },
        {
            "doubleSided" : true,
            "name" : "Material.003",
            "pbrMetallicRoughness" : {
                "baseColorFactor" : [
                    0.10677879303693771,
                    0.7107757329940796,
                    0.8000000715255737,
                    1
                ],
                "metallicFactor" : 0,
                "roughnessFactor" : 0.5
            }
        },
        {
            "doubleSided" : true,
            "name" : "Material.004",
            "pbrMetallicRoughness" : {
                "baseColorFactor" : [
                    0.8000000715255737,
                    0,
                    0.007100185379385948,
                    1
                ],
                "metallicFactor" : 0,
                "roughnessFactor" : 0.4000000059604645
            }
        },
        {
            "doubleSided" : true,
            "name" : "Material.005",
            "pbrMetallicRoughness" : {
                "baseColorFactor" : [
                    0.10677879303693771,
                    0.7107757329940796,
                    0.8000000715255737,
                    1
                ],
                "metallicFactor" : 0,
                "roughnessFactor" : 0.5
            }
        },
        {
            "doubleSided" : true,
            "name" : "Material",
            "pbrMetallicRoughness" : {
                "baseColorFactor" : [
                    0.8000000715255737,
                    0,
                    0.007100185379385948,
                    1
                ],
                "metallicFactor" : 0,
                "roughnessFactor" : 0.4000000059604645
            }
        },
        {
            "doubleSided" : true,
            "name" : "Material.001",
            "pbrMetallicRoughness" : {
                "baseColorFactor" : [
                    0.10677879303693771,
                    0.7107757329940796,
                    0.8000000715255737,
                    1
                ],
                "metallicFactor" : 0,
                "roughnessFactor" : 0.5
            }
        }
    ],
    "meshes" : [
        {
            "name" : "Cube.002",
            "primitives" : [
                {
                    "attributes" : {
                        "POSITION" : 0,
                        "NORMAL" : 1,
                        "TEXCOORD_0" : 2
                    },
                    "indices" : 3,
                    "material" : 0
                }
            ]
        },
        {
            "name" : "Cube.003",
            "primitives" : [
                {
                    "attributes" : {
                        "POSITION" : 4,
                        "NORMAL" : 5,
                        "TEXCOORD_0" : 6
                    },
                    "indices" : 7,
                    "material" : 1
                }
            ]
        },
        {
            "name" : "Cube.004",
            "primitives" : [
                {
                    "attributes" : {
                        "POSITION" : 8,
                        "NORMAL" : 9,
                        "TEXCOORD_0" : 10
                    },
                    "indices" : 3,
                    "material" : 2
                }
            ]
        },
        {
            "name" : "Cube.005",
            "primitives" : [
                {
                    "attributes" : {
                        "POSITION" : 11,
                        "NORMAL" : 12,
                        "TEXCOORD_0" : 13
                    },
                    "indices" : 7,
                    "material" : 3
                }
            ]
        },
        {
            "name" : "Cube",
            "primitives" : [
                {
                    "attributes" : {
                        "POSITION" : 14,
                        "NORMAL" : 15,
                        "TEXCOORD_0" : 16
                    },
                    "indices" : 3,
                    "material" : 4
                }
            ]
        },
        {
            "name" : "Cube.001",
            "primitives" : [
                {
                    "attributes" : {
                        "POSITION" : 17,
                        "NORMAL" : 18,
                        "TEXCOORD_0" : 19
                    },
                    "indices" : 20,
                    "material" : 5
                }
            ]
        }
    ],
    "accessors" : [
        {
            "bufferView" : 0,
            "componentType" : 5126,
            "count" : 864,
            "max" : [
                1.2970120906829834,
                1.2970120906829834,
                1.2970120906829834
            ],
            "min" : [
                -1.2970120906829834,
                -1.2970120906829834,
                -1.2970120906829834
            ],
            "type" : "VEC3"
        },
        {
            "bufferView" : 1,
            "componentType" : 5126,
            "count" : 864,
            "type" : "VEC3"
        },
        {
            "bufferView" : 2,
            "componentType" : 5126,
            "count" : 864,
            "type" : "VEC2"
        },
        {
            "bufferView" : 3,
            "componentType" : 5123,
            "count" : 1296,
            "type" : "SCALAR"
        },
        {
            "bufferView" : 4,
            "componentType" : 5126,
            "count" : 704,
            "max" : [
                0.6559395790100098,
                -0.43873918056488037,
                0.11511415243148804
            ],
            "min" : [
                0.43204623460769653,
                -0.6814466714859009,
                -0.11511415243148804
            ],
            "type" : "VEC3"
        },
        {
            "bufferView" : 5,
            "componentType" : 5126,
            "count" : 704,
            "type" : "VEC3"
        },
        {
            "bufferView" : 6,
            "componentType" : 5126,
            "count" : 704,
            "type" : "VEC2"
        },
        {
            "bufferView" : 7,
            "componentType" : 5123,
            "count" : 900,
            "type" : "SCALAR"
        },
        {
            "bufferView" : 8,
            "componentType" : 5126,
            "count" : 864,
            "max" : [
                1.2970120906829834,
                1.2970120906829834,
                1.2970120906829834
            ],
            "min" : [
                -1.2970120906829834,
                -1.2970120906829834,
                -1.2970120906829834
            ],
            "type" : "VEC3"
        },
        {
            "bufferView" : 9,
            "componentType" : 5126,
            "count" : 864,
            "type" : "VEC3"
        },
        {
            "bufferView" : 10,
            "componentType" : 5126,
            "count" : 864,
            "type" : "VEC2"
        },
        {
            "bufferView" : 11,
            "componentType" : 5126,
            "count" : 704,
            "max" : [
                0.6559395790100098,
                -0.43873918056488037,
                0.11511415243148804
            ],
            "min" : [
                0.43204623460769653,
                -0.6814466714859009,
                -0.11511415243148804
            ],
            "type" : "VEC3"
        },
        {
            "bufferView" : 12,
            "componentType" : 5126,
            "count" : 704,
            "type" : "VEC3"
        },
        {
            "bufferView" : 13,
            "componentType" : 5126,
            "count" : 704,
            "type" : "VEC2"
        },
        {
            "bufferView" : 14,
            "componentType" : 5126,
            "count" : 864,
            "max" : [
                1.2970120906829834,
                1.2970120906829834,
                1.2970120906829834
            ],
            "min" : [
                -1.2970120906829834,
                -1.2970120906829834,
                -1.2970120906829834
            ],
            "type" : "VEC3"
        },
        {
            "bufferView" : 15,
            "componentType" : 5126,
            "count" : 864,
            "type" : "VEC3"
        },
        {
            "bufferView" : 16,
            "componentType" : 5126,
            "count" : 864,
            "type" : "VEC2"
        },
        {
            "bufferView" : 17,
            "componentType" : 5126,
            "count" : 600,
            "max" : [
                0.6559395790100098,
                -0.43873918056488037,
                0.11511415243148804
            ],
            "min" : [
                0.43204623460769653,
                -0.6814466714859009,
                -0.11511415243148804
            ],
            "type" : "VEC3"
        },
        {
            "bufferView" : 18,
            "componentType" : 5126,
            "count" : 600,
            "type" : "VEC3"
        },
        {
            "bufferView" : 19,
            "componentType" : 5126,
            "count" : 600,
            "type" : "VEC2"
        },
        {
            "bufferView" : 20,
            "componentType" : 5123,
            "count" : 900,
            "type" : "SCALAR"
        },
        {
            "bufferView" : 21,
            "componentType" : 5126,
            "count" : 121,
            "max" : [
                5.041666666666667
            ],
            "min" : [
                0.041666666666666664
            ],
            "type" : "SCALAR"
        },
        {
            "bufferView" : 22,
            "componentType" : 5126,
            "count" : 121,
            "type" : "VEC3"
        },
        {
            "bufferView" : 23,
            "componentType" : 5126,
            "count" : 121,
            "type" : "VEC3"
        },
        {
            "bufferView" : 24,
            "componentType" : 5126,
            "count" : 121,
            "type" : "VEC3"
        }
    ],
    "bufferViews" : [
        {
            "buffer" : 0,
            "byteLength" : 10368,
            "byteOffset" : 0
        },
        {
            "buffer" : 0,
            "byteLength" : 10368,
            "byteOffset" : 10368
        },
        {
            "buffer" : 0,
            "byteLength" : 6912,
            "byteOffset" : 20736
        },
        {
            "buffer" : 0,
            "byteLength" : 2592,
            "byteOffset" : 27648
        },
        {
            "buffer" : 0,
            "byteLength" : 8448,
            "byteOffset" : 30240
        },
        {
            "buffer" : 0,
            "byteLength" : 8448,
            "byteOffset" : 38688
        },
        {
            "buffer" : 0,
            "byteLength" : 5632,
            "byteOffset" : 47136
        },
        {
            "buffer" : 0,
            "byteLength" : 1800,
            "byteOffset" : 52768
        },
        {
            "buffer" : 0,
            "byteLength" : 10368,
            "byteOffset" : 54568
        },
        {
            "buffer" : 0,
            "byteLength" : 10368,
            "byteOffset" : 64936
        },
        {
            "buffer" : 0,
            "byteLength" : 6912,
            "byteOffset" : 75304
        },
        {
            "buffer" : 0,
            "byteLength" : 8448,
            "byteOffset" : 82216
        },
        {
            "buffer" : 0,
            "byteLength" : 8448,
            "byteOffset" : 90664
        },
        {
            "buffer" : 0,
            "byteLength" : 5632,
            "byteOffset" : 99112
        },
        {
            "buffer" : 0,
            "byteLength" : 10368,
            "byteOffset" : 104744
        },
        {
            "buffer" : 0,
            "byteLength" : 10368,
            "byteOffset" : 115112
        },
        {
            "buffer" : 0,
            "byteLength" : 6912,
            "byteOffset" : 125480
        },
        {
            "buffer" : 0,
            "byteLength" : 7200,
            "byteOffset" : 132392
        },
        {
            "buffer" : 0,
            "byteLength" : 7200,
            "byteOffset" : 139592
        },
        {
            "buffer" : 0,
            "byteLength" : 4800,
            "byteOffset" : 146792
        },
        {
            "buffer" : 0,
            "byteLength" : 1800,
            "byteOffset" : 151592
        },
        {
            "buffer" : 0,
            "byteLength" : 484,
            "byteOffset" : 153392
        },
        {
            "buffer" : 0,
            "byteLength" : 1452,
            "byteOffset" : 153876
        },
        {
            "buffer" : 0,
            "byteLength" : 1452,
            "byteOffset" : 155328
        },
        {
            "buffer" : 0,
            "byteLength" : 1452,
            "byteOffset" : 156780
        }
    ],
    "buffers" : [
        {
            "byteLength" : 158232,
            "uri" : "data:application/octet-stream;base64,"
        }
    ]
}
