{
    "asset" : {
        "generator" : "Khronos glTF Blender I/O v1.8.19",
        "version" : "2.0"
    },
    "scene" : 0,
    "scenes" : [
        {
            "name" : "Scene",
            "nodes" : [
                0,
                1,
                2,
                3,
                4,
                5
            ]
        }
    ],
    "nodes" : [
        {
            "mesh" : 0,
            "name" : "Cube.002"
        },
        {
            "mesh" : 1,
            "name" : "Cube.003",
            "rotation" : [
                -0.10567653179168701,
                0.9867643117904663,
                0.11215336620807648,
                0.05050006881356239
            ],
            "translation" : [
                -0.6328192949295044,
                0.48096776008605957,
                2.488180160522461
            ]
        },
        {
            "mesh" : 2,
            "name" : "Cube.004"
        },
        {
            "mesh" : 3,
            "name" : "Cube.005",
            "rotation" : [
                -0.10567653179168701,
                0.9867643117904663,
                0.11215336620807648,
                0.05050006881356239
            ],
            "translation" : [
                -0.6328192949295044,
                0.48096776008605957,
                2.488180160522461
            ]
        },
        {
            "mesh" : 4,
            "name" : "Cube"
        },
        {
            "mesh" : 5,
            "name" : "Cube.001",
            "rotation" : [
                -0.10825346410274506,
                0.9853248596191406,
                0.10966813564300537,
                0.07340996712446213
            ],
            "translation" : [
                -0.7425218820571899,
                0.48096776008605957,
                2.486581563949585
            ]
        }
    ],
    "animations" : [
        {
            "channels" : [
                {
                    "sampler" : 0,
                    "target" : {
                        "node" : 1,
                        "path" : "translation"
                    }
                },
                {
                    "sampler" : 1,
                    "target" : {
                        "node" : 1,
                        "path" : "rotation"
                    }
                },
                {
                    "sampler" : 2,
                    "target" : {
                        "node" : 3,
                        "path" : "translation"
                    }
                },
                {
                    "sampler" : 3,
                    "target" : {
                        "node" : 3,
                        "path" : "rotation"
                    }
                }
            ],
            "name" : "Cube.001Action.007",
            "samplers" : [
                {
                    "input" : 22,
                    "interpolation" : "LINEAR",
                    "output" : 23
                },
                {
                    "input" : 22,
                    "interpolation" : "LINEAR",
                    "output" : 24
                },
                {
                    "input" : 22,
                    "interpolation" : "LINEAR",
                    "output" : 25
                },
                {
                    "input" : 22,
                    "interpolation" : "LINEAR",
                    "output" : 26
                }
            ]
        },
        {
            "channels" : [
                {
                    "sampler" : 0,
                    "target" : {
                        "node" : 5,
                        "path" : "translation"
                    }
                },
                {
                    "sampler" : 1,
                    "target" : {
                        "node" : 5,
                        "path" : "rotation"
                    }
                }
            ],
            "name" : "Cube.001Action.007",
            "samplers" : [
                {
                    "input" : 22,
                    "interpolation" : "LINEAR",
                    "output" : 27
                },
                {
                    "input" : 22,
                    "interpolation" : "LINEAR",
                    "output" : 28
                }
            ]
        }
    ],
    "materials" : [
        {
            "doubleSided" : true,
            "name" : "Material.002",
            "pbrMetallicRoughness" : {
                "baseColorFactor" : [
                    0.04271581023931503,
                    0.8000000715255737,
                    0,
                    1
                ],
                "metallicFactor" : 0,
                "roughnessFactor" : 0.4000000059604645
            }
        },
        {
            "doubleSided" : true,
            "name" : "Material.003",
            "pbrMetallicRoughness" : {
                "baseColorFactor" : [
                    0.27870720624923706,
                    0.8000000715255737,
                    0.7105991244316101,
                    1
                ],
                "metallicFactor" : 0,
                "roughnessFactor" : 0.5
            }
        },
        {
            "doubleSided" : true,
            "name" : "Material.004",
            "pbrMetallicRoughness" : {
                "baseColorFactor" : [
                    0.04271581023931503,
                    0.8000000715255737,
                    0,
                    1
                ],
                "metallicFactor" : 0,
                "roughnessFactor" : 0.4000000059604645
            }
        },
        {
            "doubleSided" : true,
            "name" : "Material.005",
            "pbrMetallicRoughness" : {
                "baseColorFactor" : [
                    0.27870720624923706,
                    0.8000000715255737,
                    0.7105991244316101,
                    1
                ],
                "metallicFactor" : 0,
                "roughnessFactor" : 0.5
            }
        },
        {
            "doubleSided" : true,
            "name" : "Material",
            "pbrMetallicRoughness" : {
                "baseColorFactor" : [
                    0.04271581023931503,
                    0.8000000715255737,
                    0,
                    1
                ],
                "metallicFactor" : 0,
                "roughnessFactor" : 0.4000000059604645
            }
        },
        {
            "doubleSided" : true,
            "name" : "Material.001",
            "pbrMetallicRoughness" : {
                "baseColorFactor" : [
                    0.27870720624923706,
                    0.8000000715255737,
                    0.7105991244316101,
                    1
                ],
                "metallicFactor" : 0,
                "roughnessFactor" : 0.5
            }
        }
    ],
    "meshes" : [
        {
            "name" : "Cube.002",
            "primitives" : [
                {
                    "attributes" : {
                        "POSITION" : 0,
                        "NORMAL" : 1,
                        "TEXCOORD_0" : 2
                    },
                    "indices" : 3,
                    "material" : 0
                }
            ]
        },
        {
            "name" : "Cube.003",
            "primitives" : [
                {
                    "attributes" : {
                        "POSITION" : 4,
                        "NORMAL" : 5,
                        "TEXCOORD_0" : 6
                    },
                    "indices" : 7,
                    "material" : 1
                }
            ]
        },
        {
            "name" : "Cube.004",
            "primitives" : [
                {
                    "attributes" : {
                        "POSITION" : 8,
                        "NORMAL" : 9,
                        "TEXCOORD_0" : 10
                    },
                    "indices" : 3,
                    "material" : 2
                }
            ]
        },
        {
            "name" : "Cube.005",
            "primitives" : [
                {
                    "attributes" : {
                        "POSITION" : 11,
                        "NORMAL" : 12,
                        "TEXCOORD_0" : 13
                    },
                    "indices" : 7,
                    "material" : 3
                }
            ]
        },
        {
            "name" : "Cube",
            "primitives" : [
                {
                    "attributes" : {
                        "POSITION" : 14,
                        "NORMAL" : 15,
                        "TEXCOORD_0" : 16
                    },
                    "indices" : 17,
                    "material" : 4
                }
            ]
        },
        {
            "name" : "Cube.001",
            "primitives" : [
                {
                    "attributes" : {
                        "POSITION" : 18,
                        "NORMAL" : 19,
                        "TEXCOORD_0" : 20
                    },
                    "indices" : 21,
                    "material" : 5
                }
            ]
        }
    ],
    "accessors" : [
        {
            "bufferView" : 0,
            "componentType" : 5126,
            "count" : 696,
            "max" : [
                1.2548267841339111,
                1.2548267841339111,
                1.2548267841339111
            ],
            "min" : [
                -1.2548267841339111,
                -1.2548267841339111,
                -1.2548267841339111
            ],
            "type" : "VEC3"
        },
        {
            "bufferView" : 1,
            "componentType" : 5126,
            "count" : 696,
            "type" : "VEC3"
        },
        {
            "bufferView" : 2,
            "componentType" : 5126,
            "count" : 696,
            "type" : "VEC2"
        },
        {
            "bufferView" : 3,
            "componentType" : 5123,
            "count" : 900,
            "type" : "SCALAR"
        },
        {
            "bufferView" : 4,
            "componentType" : 5126,
            "count" : 4374,
            "max" : [
                2.927069902420044,
                -0.05730822682380676,
                5.430912494659424
            ],
            "min" : [
                -3.385141372680664,
                -2.0515778064727783,
                -0.8756528496742249
            ],
            "type" : "VEC3"
        },
        {
            "bufferView" : 5,
            "componentType" : 5126,
            "count" : 4374,
            "type" : "VEC3"
        },
        {
            "bufferView" : 6,
            "componentType" : 5126,
            "count" : 4374,
            "type" : "VEC2"
        },
        {
            "bufferView" : 7,
            "componentType" : 5123,
            "count" : 5850,
            "type" : "SCALAR"
        },
        {
            "bufferView" : 8,
            "componentType" : 5126,
            "count" : 696,
            "max" : [
                1.2548267841339111,
                1.2548267841339111,
                1.2548267841339111
            ],
            "min" : [
                -1.2548267841339111,
                -1.2548267841339111,
                -1.2548267841339111
            ],
            "type" : "VEC3"
        },
        {
            "bufferView" : 9,
            "componentType" : 5126,
            "count" : 696,
            "type" : "VEC3"
        },
        {
            "bufferView" : 10,
            "componentType" : 5126,
            "count" : 696,
            "type" : "VEC2"
        },
        {
            "bufferView" : 11,
            "componentType" : 5126,
            "count" : 4374,
            "max" : [
                2.927069902420044,
                -0.05730822682380676,
                5.430912494659424
            ],
            "min" : [
                -3.385141372680664,
                -2.0515778064727783,
                -0.8756528496742249
            ],
            "type" : "VEC3"
        },
        {
            "bufferView" : 12,
            "componentType" : 5126,
            "count" : 4374,
            "type" : "VEC3"
        },
        {
            "bufferView" : 13,
            "componentType" : 5126,
            "count" : 4374,
            "type" : "VEC2"
        },
        {
            "bufferView" : 14,
            "componentType" : 5126,
            "count" : 600,
            "max" : [
                1.2548267841339111,
                1.2548267841339111,
                1.2548267841339111
            ],
            "min" : [
                -1.2548267841339111,
                -1.2548267841339111,
                -1.2548267841339111
            ],
            "type" : "VEC3"
        },
        {
            "bufferView" : 15,
            "componentType" : 5126,
            "count" : 600,
            "type" : "VEC3"
        },
        {
            "bufferView" : 16,
            "componentType" : 5126,
            "count" : 600,
            "type" : "VEC2"
        },
        {
            "bufferView" : 17,
            "componentType" : 5123,
            "count" : 900,
            "type" : "SCALAR"
        },
        {
            "bufferView" : 18,
            "componentType" : 5126,
            "count" : 3752,
            "max" : [
                2.927069902420044,
                -0.05730822682380676,
                5.430912494659424
            ],
            "min" : [
                -3.385141372680664,
                -2.0515778064727783,
                -0.8756528496742249
            ],
            "type" : "VEC3"
        },
        {
            "bufferView" : 19,
            "componentType" : 5126,
            "count" : 3752,
            "type" : "VEC3"
        },
        {
            "bufferView" : 20,
            "componentType" : 5126,
            "count" : 3752,
            "type" : "VEC2"
        },
        {
            "bufferView" : 21,
            "componentType" : 5123,
            "count" : 5850,
            "type" : "SCALAR"
        },
        {
            "bufferView" : 22,
            "componentType" : 5126,
            "count" : 120,
            "max" : [
                5
            ],
            "min" : [
                0.041666666666666664
            ],
            "type" : "SCALAR"
        },
        {
            "bufferView" : 23,
            "componentType" : 5126,
            "count" : 120,
            "type" : "VEC3"
        },
        {
            "bufferView" : 24,
            "componentType" : 5126,
            "count" : 120,
            "type" : "VEC4"
        },
        {
            "bufferView" : 25,
            "componentType" : 5126,
            "count" : 120,
            "type" : "VEC3"
        },
        {
            "bufferView" : 26,
            "componentType" : 5126,
            "count" : 120,
            "type" : "VEC4"
        },
        {
            "bufferView" : 27,
            "componentType" : 5126,
            "count" : 120,
            "type" : "VEC3"
        },
        {
            "bufferView" : 28,
            "componentType" : 5126,
            "count" : 120,
            "type" : "VEC4"
        }
    ],
    "bufferViews" : [
        {
            "buffer" : 0,
            "byteLength" : 8352,
            "byteOffset" : 0
        },
        {
            "buffer" : 0,
            "byteLength" : 8352,
            "byteOffset" : 8352
        },
        {
            "buffer" : 0,
            "byteLength" : 5568,
            "byteOffset" : 16704
        },
        {
            "buffer" : 0,
            "byteLength" : 1800,
            "byteOffset" : 22272
        },
        {
            "buffer" : 0,
            "byteLength" : 52488,
            "byteOffset" : 24072
        },
        {
            "buffer" : 0,
            "byteLength" : 52488,
            "byteOffset" : 76560
        },
        {
            "buffer" : 0,
            "byteLength" : 34992,
            "byteOffset" : 129048
        },
        {
            "buffer" : 0,
            "byteLength" : 11700,
            "byteOffset" : 164040
        },
        {
            "buffer" : 0,
            "byteLength" : 8352,
            "byteOffset" : 175740
        },
        {
            "buffer" : 0,
            "byteLength" : 8352,
            "byteOffset" : 184092
        },
        {
            "buffer" : 0,
            "byteLength" : 5568,
            "byteOffset" : 192444
        },
        {
            "buffer" : 0,
            "byteLength" : 52488,
            "byteOffset" : 198012
        },
        {
            "buffer" : 0,
            "byteLength" : 52488,
            "byteOffset" : 250500
        },
        {
            "buffer" : 0,
            "byteLength" : 34992,
            "byteOffset" : 302988
        },
        {
            "buffer" : 0,
            "byteLength" : 7200,
            "byteOffset" : 337980
        },
        {
            "buffer" : 0,
            "byteLength" : 7200,
            "byteOffset" : 345180
        },
        {
            "buffer" : 0,
            "byteLength" : 4800,
            "byteOffset" : 352380
        },
        {
            "buffer" : 0,
            "byteLength" : 1800,
            "byteOffset" : 357180
        },
        {
            "buffer" : 0,
            "byteLength" : 45024,
            "byteOffset" : 358980
        },
        {
            "buffer" : 0,
            "byteLength" : 45024,
            "byteOffset" : 404004
        },
        {
            "buffer" : 0,
            "byteLength" : 30016,
            "byteOffset" : 449028
        },
        {
            "buffer" : 0,
            "byteLength" : 11700,
            "byteOffset" : 479044
        },
        {
            "buffer" : 0,
            "byteLength" : 480,
            "byteOffset" : 490744
        },
        {
            "buffer" : 0,
            "byteLength" : 1440,
            "byteOffset" : 491224
        },
        {
            "buffer" : 0,
            "byteLength" : 1920,
            "byteOffset" : 492664
        },
        {
            "buffer" : 0,
            "byteLength" : 1440,
            "byteOffset" : 494584
        },
        {
            "buffer" : 0,
            "byteLength" : 1920,
            "byteOffset" : 496024
        },
        {
            "buffer" : 0,
            "byteLength" : 1440,
            "byteOffset" : 497944
        },
        {
            "buffer" : 0,
            "byteLength" : 1920,
            "byteOffset" : 499384
        }
    ],
    "buffers" : [
        {
            "byteLength" : 501304,
            "uri" : "data:application/octet-stream;base64,"
        }
    ]
}
