{
    "asset" : {
        "generator" : "Khronos glTF Blender I/O v1.8.19",
        "version" : "2.0"
    },
    "scene" : 0,
    "scenes" : [
        {
            "name" : "Scene",
            "nodes" : [
                0,
                1,
                2
            ]
        }
    ],
    "nodes" : [
        {
            "mesh" : 0,
            "name" : "Cube",
            "rotation" : [
                0,
                0.04661792144179344,
                0,
                -0.9989128112792969
            ]
        },
        {
            "mesh" : 1,
            "name" : "Cube.001",
            "rotation" : [
                0,
                0.04661792144179344,
                0,
                -0.9989128112792969
            ],
            "scale" : [
                1.5,
                1.5,
                1.5
            ],
            "translation" : [
                -3.4703025817871094,
                0.44179463386535645,
                -2.548868179321289
            ]
        },
        {
            "mesh" : 2,
            "name" : "Cube.002",
            "rotation" : [
                0,
                0.04661792144179344,
                0,
                -0.9989128112792969
            ],
            "scale" : [
                1.5,
                1.5,
                1.5
            ],
            "translation" : [
                1.3729608058929443,
                0.4793515205383301,
                3.4802370071411133
            ]
        }
    ],
    "animations" : [
        {
            "channels" : [
                {
                    "sampler" : 0,
                    "target" : {
                        "node" : 0,
                        "path" : "translation"
                    }
                },
                {
                    "sampler" : 1,
                    "target" : {
                        "node" : 0,
                        "path" : "rotation"
                    }
                }
            ],
            "name" : "CubeAction.001",
            "samplers" : [
                {
                    "input" : 12,
                    "interpolation" : "LINEAR",
                    "output" : 13
                },
                {
                    "input" : 14,
                    "interpolation" : "LINEAR",
                    "output" : 15
                }
            ]
        },
        {
            "channels" : [
                {
                    "sampler" : 0,
                    "target" : {
                        "node" : 1,
                        "path" : "translation"
                    }
                },
                {
                    "sampler" : 1,
                    "target" : {
                        "node" : 1,
                        "path" : "rotation"
                    }
                }
            ],
            "name" : "Cube.001Action.001",
            "samplers" : [
                {
                    "input" : 14,
                    "interpolation" : "LINEAR",
                    "output" : 16
                },
                {
                    "input" : 14,
                    "interpolation" : "LINEAR",
                    "output" : 17
                }
            ]
        },
        {
            "channels" : [
                {
                    "sampler" : 0,
                    "target" : {
                        "node" : 2,
                        "path" : "translation"
                    }
                },
                {
                    "sampler" : 1,
                    "target" : {
                        "node" : 2,
                        "path" : "rotation"
                    }
                }
            ],
            "name" : "Cube.002Action.001",
            "samplers" : [
                {
                    "input" : 14,
                    "interpolation" : "LINEAR",
                    "output" : 18
                },
                {
                    "input" : 14,
                    "interpolation" : "LINEAR",
                    "output" : 19
                }
            ]
        }
    ],
    "materials" : [
        {
            "doubleSided" : true,
            "name" : "Material",
            "pbrMetallicRoughness" : {
                "baseColorFactor" : [
                    0.05313275754451752,
                    0.8000000715255737,
                    0.28087684512138367,
                    1
                ],
                "metallicFactor" : 0,
                "roughnessFactor" : 0.4000000059604645
            }
        },
        {
            "doubleSided" : true,
            "name" : "Material.002",
            "pbrMetallicRoughness" : {
                "baseColorFactor" : [
                    0.8000000715255737,
                    0.047442905604839325,
                    0.056804269552230835,
                    1
                ],
                "metallicFactor" : 0,
                "roughnessFactor" : 0.5
            }
        },
        {
            "doubleSided" : true,
            "name" : "Material.001",
            "pbrMetallicRoughness" : {
                "baseColorFactor" : [
                    0.8000000715255737,
                    0.043050434440374374,
                    0.04736129194498062,
                    1
                ],
                "metallicFactor" : 0,
                "roughnessFactor" : 0.5
            }
        }
    ],
    "meshes" : [
        {
            "name" : "Cube",
            "primitives" : [
                {
                    "attributes" : {
                        "POSITION" : 0,
                        "NORMAL" : 1,
                        "TEXCOORD_0" : 2
                    },
                    "indices" : 3,
                    "material" : 0
                }
            ]
        },
        {
            "name" : "Cube.001",
            "primitives" : [
                {
                    "attributes" : {
                        "POSITION" : 4,
                        "NORMAL" : 5,
                        "TEXCOORD_0" : 6
                    },
                    "indices" : 7,
                    "material" : 1
                }
            ]
        },
        {
            "name" : "Cube.002",
            "primitives" : [
                {
                    "attributes" : {
                        "POSITION" : 8,
                        "NORMAL" : 9,
                        "TEXCOORD_0" : 10
                    },
                    "indices" : 11,
                    "material" : 2
                }
            ]
        }
    ],
    "accessors" : [
        {
            "bufferView" : 0,
            "componentType" : 5126,
            "count" : 864,
            "max" : [
                1.2970120906829834,
                1.2970120906829834,
                1.2970120906829834
            ],
            "min" : [
                -1.2970120906829834,
                -1.2970120906829834,
                -1.2970120906829834
            ],
            "type" : "VEC3"
        },
        {
            "bufferView" : 1,
            "componentType" : 5126,
            "count" : 864,
            "type" : "VEC3"
        },
        {
            "bufferView" : 2,
            "componentType" : 5126,
            "count" : 864,
            "type" : "VEC2"
        },
        {
            "bufferView" : 3,
            "componentType" : 5123,
            "count" : 1296,
            "type" : "SCALAR"
        },
        {
            "bufferView" : 4,
            "componentType" : 5126,
            "count" : 864,
            "max" : [
                2.9969265460968018,
                0.6159061193466187,
                1.2686846256256104
            ],
            "min" : [
                1.7651145458221436,
                -0.6159061193466187,
                0.03687232732772827
            ],
            "type" : "VEC3"
        },
        {
            "bufferView" : 5,
            "componentType" : 5126,
            "count" : 864,
            "type" : "VEC3"
        },
        {
            "bufferView" : 6,
            "componentType" : 5126,
            "count" : 864,
            "type" : "VEC2"
        },
        {
            "bufferView" : 7,
            "componentType" : 5123,
            "count" : 1296,
            "type" : "SCALAR"
        },
        {
            "bufferView" : 8,
            "componentType" : 5126,
            "count" : 3456,
            "max" : [
                -0.37784695625305176,
                0.5979193449020386,
                -0.5276975035667419
            ],
            "min" : [
                -1.6378235816955566,
                -0.6620572805404663,
                -1.787674069404602
            ],
            "type" : "VEC3"
        },
        {
            "bufferView" : 9,
            "componentType" : 5126,
            "count" : 3456,
            "type" : "VEC3"
        },
        {
            "bufferView" : 10,
            "componentType" : 5126,
            "count" : 3456,
            "type" : "VEC2"
        },
        {
            "bufferView" : 11,
            "componentType" : 5123,
            "count" : 5184,
            "type" : "SCALAR"
        },
        {
            "bufferView" : 12,
            "componentType" : 5126,
            "count" : 2,
            "max" : [
                3.75
            ],
            "min" : [
                0.041666666666666664
            ],
            "type" : "SCALAR"
        },
        {
            "bufferView" : 13,
            "componentType" : 5126,
            "count" : 2,
            "type" : "VEC3"
        },
        {
            "bufferView" : 14,
            "componentType" : 5126,
            "count" : 90,
            "max" : [
                3.75
            ],
            "min" : [
                0.041666666666666664
            ],
            "type" : "SCALAR"
        },
        {
            "bufferView" : 15,
            "componentType" : 5126,
            "count" : 90,
            "type" : "VEC4"
        },
        {
            "bufferView" : 16,
            "componentType" : 5126,
            "count" : 90,
            "type" : "VEC3"
        },
        {
            "bufferView" : 17,
            "componentType" : 5126,
            "count" : 90,
            "type" : "VEC4"
        },
        {
            "bufferView" : 18,
            "componentType" : 5126,
            "count" : 90,
            "type" : "VEC3"
        },
        {
            "bufferView" : 19,
            "componentType" : 5126,
            "count" : 90,
            "type" : "VEC4"
        }
    ],
    "bufferViews" : [
        {
            "buffer" : 0,
            "byteLength" : 10368,
            "byteOffset" : 0
        },
        {
            "buffer" : 0,
            "byteLength" : 10368,
            "byteOffset" : 10368
        },
        {
            "buffer" : 0,
            "byteLength" : 6912,
            "byteOffset" : 20736
        },
        {
            "buffer" : 0,
            "byteLength" : 2592,
            "byteOffset" : 27648
        },
        {
            "buffer" : 0,
            "byteLength" : 10368,
            "byteOffset" : 30240
        },
        {
            "buffer" : 0,
            "byteLength" : 10368,
            "byteOffset" : 40608
        },
        {
            "buffer" : 0,
            "byteLength" : 6912,
            "byteOffset" : 50976
        },
        {
            "buffer" : 0,
            "byteLength" : 2592,
            "byteOffset" : 57888
        },
        {
            "buffer" : 0,
            "byteLength" : 41472,
            "byteOffset" : 60480
        },
        {
            "buffer" : 0,
            "byteLength" : 41472,
            "byteOffset" : 101952
        },
        {
            "buffer" : 0,
            "byteLength" : 27648,
            "byteOffset" : 143424
        },
        {
            "buffer" : 0,
            "byteLength" : 10368,
            "byteOffset" : 171072
        },
        {
            "buffer" : 0,
            "byteLength" : 8,
            "byteOffset" : 181440
        },
        {
            "buffer" : 0,
            "byteLength" : 24,
            "byteOffset" : 181448
        },
        {
            "buffer" : 0,
            "byteLength" : 360,
            "byteOffset" : 181472
        },
        {
            "buffer" : 0,
            "byteLength" : 1440,
            "byteOffset" : 181832
        },
        {
            "buffer" : 0,
            "byteLength" : 1080,
            "byteOffset" : 183272
        },
        {
            "buffer" : 0,
            "byteLength" : 1440,
            "byteOffset" : 184352
        },
        {
            "buffer" : 0,
            "byteLength" : 1080,
            "byteOffset" : 185792
        },
        {
            "buffer" : 0,
            "byteLength" : 1440,
            "byteOffset" : 186872
        }
    ],
    "buffers" : [
        {
            "byteLength" : 188312,
            "uri" : "data:application/octet-stream;base64,"
        }
    ]
}
